<svg width="1440" height="856" viewBox="0 0 1440 856" fill="none" xmlns="http://www.w3.org/2000/svg">
<path d="M0 536L21.8 562.7C43.6 589 87 643 131 680C174.5 717 218 739 262 744C305.5 749 349 739 393 722.7C436.4 707 480 685 524 701.3C567.3 717 611 771 655 754.7C698.2 739 742 653 785 626.7C829.1 600 873 632 916 680C960 728 1004 792 1047 802.7C1090.9 813 1135 771 1178 749.3C1221.8 728 1265 728 1309 733.3C1352.7 739 1396 749 1418 754.7L1440 760V536H1418.2C1396.4 536 1353 536 1309 536C1265.5 536 1222 536 1178 536C1134.5 536 1091 536 1047 536C1003.6 536 960 536 916 536C872.7 536 829 536 785 536C741.8 536 698 536 655 536C610.9 536 567 536 524 536C480 536 436 536 393 536C349.1 536 305 536 262 536C218.2 536 175 536 131 536C87.3 536 44 536 22 536H0Z" fill="#009BE5"/>
<rect width="1440" height="536" fill="#009BE5"/>
</svg>
